<svg width="20" height="20" viewBox="0 0 20 20" fill="none" xmlns="http://www.w3.org/2000/svg">
<path d="M10.0331 0.41748C8.77457 0.41748 7.52839 0.665361 6.36569 1.14697C5.20299 1.62858 4.14653 2.33448 3.25663 3.22437C1.45941 5.0216 0.449741 7.45916 0.449741 10.0008C0.441364 12.2137 1.20758 14.3598 2.61557 16.0671L0.698908 17.9837C0.565932 18.1185 0.475852 18.2896 0.440035 18.4755C0.404219 18.6614 0.424269 18.8538 0.497658 19.0283C0.577255 19.2007 0.706291 19.3456 0.868386 19.4446C1.03048 19.5436 1.21833 19.5921 1.40807 19.5841H10.0331C12.5747 19.5841 15.0123 18.5745 16.8095 16.7773C18.6067 14.98 19.6164 12.5425 19.6164 10.0008C19.6164 7.45916 18.6067 5.0216 16.8095 3.22437C15.0123 1.42715 12.5747 0.41748 10.0331 0.41748ZM10.0331 17.6675H3.71766L4.60891 16.7762C4.7874 16.5967 4.88758 16.3538 4.88758 16.1006C4.88758 15.8474 4.7874 15.6045 4.60891 15.425C3.35405 14.1715 2.57262 12.5217 2.39774 10.7567C2.22286 8.99174 2.66535 7.22069 3.64983 5.74536C4.63432 4.27002 6.09987 3.18166 7.79682 2.6657C9.49376 2.14975 11.3171 2.23813 12.9562 2.91577C14.5953 3.59342 15.9487 4.81841 16.7859 6.38204C17.6231 7.94567 17.8922 9.75121 17.5475 11.491C17.2027 13.2308 16.2654 14.7973 14.8952 15.9235C13.525 17.0498 11.8067 17.6661 10.0331 17.6675ZM14.8247 9.04248H5.24141C4.98724 9.04248 4.74349 9.14345 4.56376 9.32317C4.38404 9.50289 4.28307 9.74665 4.28307 10.0008C4.28307 10.255 4.38404 10.4987 4.56376 10.6785C4.74349 10.8582 4.98724 10.9591 5.24141 10.9591H14.8247C15.0789 10.9591 15.3227 10.8582 15.5024 10.6785C15.6821 10.4987 15.7831 10.255 15.7831 10.0008C15.7831 9.74665 15.6821 9.50289 15.5024 9.32317C15.3227 9.14345 15.0789 9.04248 14.8247 9.04248ZM12.9081 12.8758H7.15807C6.90391 12.8758 6.66015 12.9768 6.48043 13.1565C6.30071 13.3362 6.19974 13.58 6.19974 13.8341C6.19974 14.0883 6.30071 14.3321 6.48043 14.5118C6.66015 14.6915 6.90391 14.7925 7.15807 14.7925H12.9081C13.1622 14.7925 13.406 14.6915 13.5857 14.5118C13.7654 14.3321 13.8664 14.0883 13.8664 13.8341C13.8664 13.58 13.7654 13.3362 13.5857 13.1565C13.406 12.9768 13.1622 12.8758 12.9081 12.8758ZM7.15807 7.12581H12.9081C13.1622 7.12581 13.406 7.02485 13.5857 6.84512C13.7654 6.6654 13.8664 6.42165 13.8664 6.16748C13.8664 5.91331 13.7654 5.66956 13.5857 5.48984C13.406 5.31011 13.1622 5.20915 12.9081 5.20915H7.15807C6.90391 5.20915 6.66015 5.31011 6.48043 5.48984C6.30071 5.66956 6.19974 5.91331 6.19974 6.16748C6.19974 6.42165 6.30071 6.6654 6.48043 6.84512C6.66015 7.02485 6.90391 7.12581 7.15807 7.12581Z" fill="#ABABAB"/>
</svg>
