<svg width="17" height="27" viewBox="0 0 17 27" fill="none" xmlns="http://www.w3.org/2000/svg">
<path d="M13.9375 0.8125H3.0625C2.34144 0.8125 1.64992 1.09894 1.14005 1.6088C0.630189 2.11867 0.34375 2.81019 0.34375 3.53125V23.4688C0.34375 24.1898 0.630189 24.8813 1.14005 25.3912C1.64992 25.9011 2.34144 26.1875 3.0625 26.1875H13.9375C14.6586 26.1875 15.3501 25.9011 15.8599 25.3912C16.3698 24.8813 16.6562 24.1898 16.6562 23.4688V3.53125C16.6562 2.81019 16.3698 2.11867 15.8599 1.6088C15.3501 1.09894 14.6586 0.8125 13.9375 0.8125ZM2.15625 6.25H14.8438V20.75H2.15625V6.25ZM3.0625 2.625H13.9375C14.1779 2.625 14.4084 2.72048 14.5783 2.89043C14.7483 3.06039 14.8438 3.2909 14.8438 3.53125V4.4375H2.15625V3.53125C2.15625 3.2909 2.25173 3.06039 2.42168 2.89043C2.59164 2.72048 2.82215 2.625 3.0625 2.625ZM13.9375 24.375H3.0625C2.82215 24.375 2.59164 24.2795 2.42168 24.1096C2.25173 23.9396 2.15625 23.7091 2.15625 23.4688V22.5625H14.8438V23.4688C14.8438 23.7091 14.7483 23.9396 14.5783 24.1096C14.4084 24.2795 14.1779 24.375 13.9375 24.375Z" fill="black"/>
</svg>
