<svg width="12" height="7" viewBox="0 0 12 7" fill="none" xmlns="http://www.w3.org/2000/svg">
<path d="M1.14173 6.47572C0.973676 6.30766 0.889648 6.09377 0.889648 5.83405C0.889648 5.57433 0.973676 5.36044 1.14173 5.19238L5.3584 0.975716C5.45007 0.884049 5.54937 0.819271 5.65631 0.781383C5.76326 0.743494 5.87784 0.724244 6.00006 0.723633C6.12229 0.723633 6.24084 0.746549 6.35573 0.792383C6.47062 0.838216 6.56595 0.899327 6.64173 0.975716L10.8584 5.19238C11.0265 5.36044 11.1105 5.57433 11.1105 5.83405C11.1105 6.09377 11.0265 6.30766 10.8584 6.47572C10.6903 6.64377 10.4765 6.7278 10.2167 6.7278C9.95701 6.7278 9.74312 6.64377 9.57506 6.47572L6.00006 2.90072L2.42507 6.47572C2.25701 6.64377 2.04312 6.7278 1.7834 6.7278C1.52368 6.7278 1.30979 6.64377 1.14173 6.47572Z" fill="#36416A"/>
</svg>
