<svg width="23" height="23" viewBox="0 0 23 23" fill="none" xmlns="http://www.w3.org/2000/svg">
<path d="M11.5002 0.499512C12.9589 0.499512 14.3579 1.07897 15.3893 2.11042C16.4208 3.14187 17.0002 4.54082 17.0002 5.99951C17.0002 7.4582 16.4208 8.85715 15.3893 9.8886C14.3579 10.92 12.9589 11.4995 11.5002 11.4995C10.0416 11.4995 8.64261 10.92 7.61116 9.8886C6.57971 8.85715 6.00024 7.4582 6.00024 5.99951C6.00024 4.54082 6.57971 3.14187 7.61116 2.11042C8.64261 1.07897 10.0416 0.499512 11.5002 0.499512ZM11.5002 14.2495C17.5777 14.2495 22.5002 16.7108 22.5002 19.7495V22.4995H0.500244V19.7495C0.500244 16.7108 5.42274 14.2495 11.5002 14.2495Z" fill="black"/>
</svg>
